<?xml version="1.0" standalone="no"?>
<!DOCTYPE svg PUBLIC "-//W3C//DTD SVG 20010904//EN"
 "http://www.w3.org/TR/2001/REC-SVG-20010904/DTD/svg10.dtd">
<svg version="1.0" xmlns="http://www.w3.org/2000/svg"
 width="256.000000pt" height="256.000000pt" viewBox="0 0 256.000000 256.000000"
 preserveAspectRatio="xMidYMid meet">
<metadata>
Created by potrace 1.14, written by Peter Selinger 2001-2017
</metadata>
<g transform="translate(0.000000,256.000000) scale(0.100000,-0.100000)"
fill="#000000" stroke="none">
<path d="M2010 2514 c-159 -110 -291 -181 -440 -237 -198 -75 -298 -94 -515
-101 -349 -11 -732 92 -988 268 l-67 46 2 -302 3 -303 145 -3 c322 -7 613 58
791 177 35 23 55 32 50 22 -10 -17 -85 -90 -161 -154 l-45 -39 48 6 c27 3 80
17 118 30 80 28 249 122 295 164 25 23 51 33 120 46 82 16 216 50 253 64 8 3
-9 -19 -39 -49 -47 -46 -120 -159 -120 -185 0 -4 18 17 39 47 61 85 134 130
244 150 159 29 331 -44 414 -177 24 -38 32 -44 53 -39 41 10 102 58 122 96 23
44 36 163 19 173 -6 4 -11 3 -11 -3 0 -23 -62 -71 -93 -71 l-30 0 21 23 c11
12 24 35 28 51 6 27 8 28 53 22 25 -3 90 -9 144 -12 l97 -7 0 172 0 171 -242
-1 -243 0 -65 -45z m30 -225 c69 -17 139 -34 155 -38 l30 -7 -35 -22 c-46 -29
-80 -28 -159 5 -56 23 -81 27 -161 28 l-95 0 65 32 c36 17 67 32 70 32 3 1 61
-13 130 -30z"/>
<path d="M1757 1896 c-86 -32 -136 -96 -145 -187 -6 -64 13 -115 62 -163 64
-65 154 -83 231 -47 48 22 99 74 115 116 16 43 14 129 -4 162 l-15 28 -1 -28
c-1 -85 -102 -125 -158 -64 -29 32 -35 61 -18 100 16 40 27 48 76 57 l35 7
-29 12 c-47 19 -108 22 -149 7z"/>
<path d="M984 1709 c-51 -27 -133 -60 -184 -75 -115 -33 -234 -31 -348 6 l-72
24 -28 -33 c-23 -28 -36 -34 -80 -39 -57 -5 -65 -17 -31 -48 15 -14 36 -19 75
-19 47 0 51 -2 39 -15 -8 -8 -36 -17 -62 -20 l-48 -6 35 -22 c47 -30 106 -45
146 -37 18 3 56 21 85 41 50 34 53 34 106 24 61 -11 161 0 231 24 84 30 163
100 221 196 38 63 36 63 -85 -1z"/>
<path d="M70 918 c1 -24 8 -61 16 -83 8 -22 24 -74 34 -116 45 -181 139 -346
268 -471 93 -90 175 -146 297 -204 l92 -44 521 0 521 0 76 35 c234 107 415
280 512 493 19 42 50 109 69 147 27 55 34 82 34 125 l-1 55 -20 -37 c-69 -132
-432 -287 -804 -344 -121 -19 -406 -24 -565 -11 -279 23 -558 120 -803 280
-91 59 -195 151 -216 191 -21 38 -31 32 -31 -16z m395 -460 c146 -75 367 -136
610 -170 136 -19 476 -16 615 5 137 21 287 56 389 91 41 14 77 23 79 21 7 -7
-47 -67 -102 -113 -96 -81 -274 -152 -461 -183 -128 -22 -482 -17 -625 9 -220
40 -399 117 -512 221 -57 53 -114 132 -134 186 -7 18 -6 18 27 -3 19 -13 70
-41 114 -64z"/>
<path d="M1010 823 c-46 -17 -75 -69 -60 -108 11 -30 65 -65 100 -65 36 0 88
35 96 65 18 73 -61 136 -136 108z"/>
<path d="M1458 805 c-78 -44 -56 -143 35 -160 68 -13 140 48 123 103 -18 56
-105 87 -158 57z"/>
</g>
</svg>
